<?xml version="1.0" standalone="no"?><!DOCTYPE svg PUBLIC "-//W3C//DTD SVG 1.1//EN" "http://www.w3.org/Graphics/SVG/1.1/DTD/svg11.dtd"><svg t="1542879190196" class="icon" style="" viewBox="0 0 1024 1024" version="1.1" xmlns="http://www.w3.org/2000/svg" p-id="2527" xmlns:xlink="http://www.w3.org/1999/xlink" width="16" height="16"><defs><style type="text/css"></style></defs><path d="M907.284949 64.342913c-29.926936-29.926936-78.308816-29.926936-108.235753 0l-23.941549 23.941549-472.845592 472.845592c0 0-0.498782 0.498782-0.498782 0.498782-0.498782 0.498782-0.498782 0.498782-0.997565 0.997565-0.498782 0.498782-0.997565 1.496347-0.997565 1.995129 0 0-0.498782 0.498782-0.498782 0.498782l-59.35509 126.191914c-5.486605 11.471992-2.992694 24.939113 5.985387 33.917194 5.985387 5.985387 13.467121 8.978081 20.948855 8.978081 4.48904 0 8.479299-0.997565 12.968339-2.992694l126.191914-59.35509c0 0 0.498782-0.498782 0.498782-0.498782 0.498782-0.498782 1.496347-0.498782 1.995129-0.997565 0.498782-0.498782 0.498782-0.498782 0.997565-0.997565 0 0 0.498782-0.498782 0.498782-0.498782l472.845592-472.845592c0 0 0 0 0 0l23.941549-23.941549c14.464686-14.464686 22.445202-33.418412 22.445202-53.868485S921.749635 78.807599 907.284949 64.342913zM400.02338 636.944959 334.184121 571.105699 785.582075 119.707745l65.83926 65.83926L400.02338 636.944959z" p-id="2528" fill="#8a8a8a"></path><path d="M827.978568 364.111057c-8.479299 0-14.963468 6.48417-14.963468 14.963468l0 449.402825c0 9.975645-7.980516 17.956162-17.956162 17.956162L142.152947 846.433512c-9.975645 0-17.956162-7.980516-17.956162-17.956162L124.196785 175.571359c0-9.975645 7.980516-17.956162 17.956162-17.956162l445.412567 0c8.479299 0 14.963468-6.48417 14.963468-14.963468s-6.48417-14.963468-14.963468-14.963468L142.152947 127.688261c-26.43546 0-47.883098 21.447638-47.883098 47.883098l0 652.905991c0 26.43546 21.447638 47.883098 47.883098 47.883098l652.905991 0c26.43546 0 47.883098-21.447638 47.883098-47.883098L842.942036 379.074525C842.942036 371.094009 835.959084 364.111057 827.978568 364.111057z" p-id="2529" fill="#8a8a8a"></path></svg>